<svg width="100px" height="100px" viewBox="0 0 100 100" version="1.1" xmlns="http://www.w3.org/2000/svg" xmlns:xlink="http://www.w3.org/1999/xlink">
	<g id="flower_playing_cards" transform="translate(3.000000, -1.000000)" font-size="94.4761905">
        <text>
            <tspan x="0" y="94">🎴</tspan>
        </text>
    </g>
    <g id="kiss" transform="translate(3.000000, -1.000000)" font-size="94.4761905">
        <text>
            <tspan x="0" y="94">😘</tspan>
        </text>
    </g>

	<g id="chart-sketch" fill="none" stroke="#000000" stroke-width="0.1">
		<path d="M5.081,2.381
			c0.003,6.934-0.565,13.848-0.56,20.788c0.008,12.044,0.246,24.056,0.855,36.082C5.71,65.842,6.004,72.553,6.098,79.15
			c0.068,4.748-0.407,9.642-0.107,14.37c2.327-0.259,4.681-1.896,7.111-2.338c3.033-0.551,6.011-1.365,9.047-1.902
			c3.121-0.552,6.23-0.648,9.387-0.805c10.355-0.515,20.181,1.465,30.33,3.157c7.244,1.209,14.436,0.983,21.716,1.462
			c2.101,0.138,3.75-0.198,5.812-0.466c0.628-0.082,1.572,0.175,2.051-0.05c-0.05-0.334-0.288-0.43-0.715-0.288"/>
		<path d="M16.516,78.614
			c-0.053,0.146-0.021,0.225,0.096,0.239c2.358-4.943,1.76-11.202,4.528-15.954c1.912-0.389,4.213,5.722,5.854,1.578
			c0.989-2.495,0.863-5.47,1.242-8.088c0.443-3.055,0.635-7.157,2.258-9.86c0.738-0.099,1.675,1.854,1.899,2.173
			c1.023,1.457,2.176,3.458,4.055,3.95c1.954,0.51,2.959-0.642,3.864-2.193c1.693-2.902,2.592-6.342,4.017-9.385
			c0.503-1.074,1.375-3.392,2.623-3.984c1.587-0.754,2.567,1.389,3.321,2.389c0.737,0.979,1.07,1.664,2.26,1.02
			c2.188-1.184,3.113-6.721,3.875-8.765c0.695-1.863,1.633-5.235,3.271-6.587c1.718-1.418,1.604,0.396,2.208,1.984
			c0.218,0.572,1.166,3.475,2.226,3.501c1.87,0.048,2.619-4.696,2.95-5.742c1.124-3.558,2.153-5.773,4.541-8.534
			c0.298-0.344,1.303-1.256,0.854-1.307"/>
	</g>
</svg>

