<?xml version="1.0" encoding="UTF-8" standalone="no"?><!DOCTYPE svg PUBLIC "-//W3C//DTD SVG 1.1//EN" "http://www.w3.org/Graphics/SVG/1.1/DTD/svg11.dtd"><svg width="100%" height="100%" viewBox="0 0 900 700" version="1.1" xmlns="http://www.w3.org/2000/svg" xmlns:xlink="http://www.w3.org/1999/xlink" xml:space="preserve" style="fill-rule:evenodd;clip-rule:evenodd;stroke-linejoin:round;stroke-miterlimit:1.5;"><rect x="-16.885" y="-21.252" width="948.274" height="762.854" style="fill:url(#_Radial1);"/><g id="Layer1"><rect x="100" y="100" width="700" height="500" style="fill:#fff;"/><path d="M80.652,100l0,500" style="fill:none;stroke:#008f0b;stroke-width:1px;stroke-dasharray:1,1;"/><path d="M100,79.825c0,0 700,-5.079 700,0" style="fill:none;stroke:#008f0b;stroke-width:1px;stroke-dasharray:1,1;"/><g transform="matrix(1,0,0,1,198.602,-146.392)"><text x="217.094px" y="216.663px" style="font-family:'Helvetica';font-size:16px;fill:none;">width</text><text x="217.094px" y="216.663px" style="font-family:'Helvetica';font-size:16px;fill:#018f00;">width</text></g><g transform="matrix(6.12323e-17,-1,1,6.12323e-17,-431.214,424.507)"><text x="52.988px" y="498.971px" style="font-family:'Helvetica';font-size:16px;fill:none;">height</text><text x="52.988px" y="498.971px" style="font-family:'Helvetica';font-size:16px;fill:#018f00;">height</text></g><g transform="matrix(1,0,0,1,-85.9598,-135.851)"><text x="150.655px" y="272.079px" style="font-family:'Helvetica';font-size:16px;fill:none;">titleX</text><text x="150.655px" y="272.079px" style="font-family:'Helvetica';font-size:16px;fill:#ff0700;">titleX</text></g><g transform="matrix(1,0,0,1,-115.253,301.818)"><text x="150.655px" y="272.079px" style="font-family:'Helvetica';font-size:16px;fill:none;">sourceX</text><text x="150.655px" y="272.079px" style="font-family:'Helvetica';font-size:16px;fill:#ff0700;">sourceX</text></g><g transform="matrix(1,0,0,1,-111.757,-107.853)"><text x="150.655px" y="272.079px" style="font-family:'Helvetica';font-size:16px;fill:none;">subtitleX</text><text x="150.655px" y="272.079px" style="font-family:'Helvetica';font-size:16px;fill:#ff0700;">subtitleX</text></g><g transform="matrix(6.12323e-17,1,-1,6.12323e-17,424.665,-111.905)"><text x="150.655px" y="272.079px" style="font-family:'Helvetica';font-size:16px;fill:none;">subtitleY</text><text x="150.655px" y="272.079px" style="font-family:'Helvetica';font-size:16px;fill:#ff0700;">subtitleY</text></g><g transform="matrix(6.12323e-17,1,-1,6.12323e-17,418.766,334.83)"><text x="150.655px" y="272.079px" style="font-family:'Helvetica';font-size:16px;fill:none;">sourceY</text><text x="150.655px" y="272.079px" style="font-family:'Helvetica';font-size:16px;fill:#ff0700;">sourceY</text></g><g transform="matrix(6.12323e-17,1,-1,6.12323e-17,401.866,-90.9421)"><text x="150.655px" y="272.079px" style="font-family:'Helvetica';font-size:16px;fill:none;">t</text><text x="155.26px" y="272.079px" style="font-family:'Helvetica';font-size:16px;fill:none;">itleY</text><text x="150.655px" y="272.079px" style="font-family:'Helvetica';font-size:16px;fill:#ff0700;">t</text><text x="155.26px" y="272.079px" style="font-family:'Helvetica';font-size:16px;fill:#ff0700;">itleY</text></g></g><g><path d="M157.09,147.935l0,-47.935" style="fill:none;stroke:#f00;stroke-width:1px;stroke-dasharray:1,1;"/><path d="M100,158.835l34.842,0" style="fill:none;stroke:#f00;stroke-width:1px;stroke-dasharray:1,1;"/><text x="134px" y="165px" style="font-family:'LucidaGrande', 'Lucida Grande', sans-serif;font-weight:500;font-size:20px;fill:#6b6e68;">subtitle</text></g><g><path d="M100,569.065l34.842,0" style="fill:none;stroke:#f00;stroke-width:1px;stroke-dasharray:1,1;"/><path d="M164.446,100l0,452.065" style="fill:none;stroke:#f00;stroke-width:1px;stroke-dasharray:1,1;"/><text x="134px" y="565px" style="font-family:'LucidaGrande', 'Lucida Grande', sans-serif;font-weight:500;font-size:16px;fill:#6b6e68;">source</text><g transform="matrix(1,0,0,1,134,583)"><text x="0px" y="0px" style="font-family:'LucidaGrande', 'Lucida Grande', sans-serif;font-weight:500;font-size:16px;fill:#6b6e68;">(</text><text x="5.523px" y="0px" style="font-family:'LucidaGrande', 'Lucida Grande', sans-serif;font-weight:500;font-size:16px;fill:#6b6e68;">more source)</text></g></g><g><g><text x="134px" y="135px" style="font-family:'LucidaGrande', 'Lucida Grande', sans-serif;font-weight:500;font-size:25px;fill:#3b3d3b;">title</text><path d="M134.842,100l0,15.278" style="fill:none;stroke:#f00;stroke-width:1px;stroke-dasharray:1,1;"/><path d="M100,129.079l34.842,0" style="fill:none;stroke:#f00;stroke-width:1px;stroke-dasharray:1,1;"/></g></g><g><path id="logo" d="M765.526,565.525l34.298,0l0,34.3l-34.298,0l0,-34.3l0,0Zm16.144,8.29l0.653,0l-0.1,-3.417l-12.946,0l0,0.587c0.413,0.022 0.726,0.053 0.938,0.092c0.212,0.039 0.402,0.125 0.569,0.259c0.168,0.134 0.279,0.319 0.335,0.553c0.056,0.235 0.084,0.558 0.084,0.971l0,10.568c0,0.413 -0.028,0.734 -0.084,0.961c-0.056,0.229 -0.167,0.414 -0.335,0.547c-0.167,0.134 -0.362,0.224 -0.586,0.268c-0.223,0.045 -0.541,0.073 -0.955,0.084l0,0.603l7.336,0l0,-0.603c-0.514,-0.011 -0.899,-0.039 -1.156,-0.084c-0.257,-0.044 -0.48,-0.134 -0.67,-0.268c-0.19,-0.134 -0.312,-0.318 -0.368,-0.547c-0.056,-0.227 -0.084,-0.548 -0.084,-0.961l0,-5.058l1.156,0c1.038,0 1.797,0.159 2.277,0.477c0.48,0.318 0.798,0.918 0.955,1.801l0.586,0l0,-5.477l-0.586,0c-0.101,0.57 -0.249,0.994 -0.444,1.273c-0.195,0.28 -0.505,0.481 -0.93,0.603c-0.424,0.124 -1.043,0.185 -1.858,0.185l-1.156,0l0,-4.908c0,-0.312 0.056,-0.521 0.168,-0.627c0.111,-0.107 0.34,-0.16 0.686,-0.16l2.345,0c0.77,0 1.39,0.034 1.859,0.101c0.469,0.067 0.857,0.198 1.164,0.394c0.307,0.195 0.539,0.424 0.695,0.686c0.156,0.262 0.307,0.628 0.452,1.097l0,0Zm14.738,0l0.787,0l-0.318,-3.417l-13.582,0l-0.318,3.417l0.787,0c0.246,-0.837 0.58,-1.426 1.005,-1.767c0.424,-0.341 1.043,-0.511 1.859,-0.511l1.909,0l0,11.891c0,0.413 -0.028,0.734 -0.084,0.962c-0.056,0.229 -0.176,0.413 -0.36,0.546c-0.184,0.134 -0.399,0.224 -0.645,0.268c-0.245,0.045 -0.608,0.073 -1.088,0.084l0,0.603l7.469,0l0,-0.603c-0.48,-0.011 -0.845,-0.039 -1.097,-0.084c-0.251,-0.044 -0.469,-0.134 -0.653,-0.268c-0.184,-0.133 -0.304,-0.317 -0.36,-0.546c-0.055,-0.228 -0.083,-0.549 -0.083,-0.962l0,-11.891l1.909,0c0.815,0 1.435,0.17 1.859,0.511c0.423,0.341 0.758,0.93 1.004,1.767l0,0Z" style="fill:#a17c00;fill-rule:nonzero;"/><g transform="matrix(1,0,0,1,-86.1609,-153.447)"><text x="819.806px" y="768.58px" style="font-family:'Helvetica';font-size:16px;fill:none;">watermarkPath</text><text x="819.806px" y="768.58px" style="font-family:'Helvetica';font-size:16px;fill:#a17c00;">watermarkPath</text></g><path d="M800,561.525l-34.474,0" style="fill:none;stroke:#8f0086;stroke-width:1px;stroke-dasharray:1,1;"/><path d="M760.763,565.288l0,34.474" style="fill:none;stroke:#8f0086;stroke-width:1px;stroke-dasharray:1,1;"/><g transform="matrix(1,0,0,1,-85,-151)"><text x="819.81px" y="707.038px" style="font-family:'Helvetica';font-size:16px;fill:none;">watermarkSize</text><text x="819.81px" y="707.038px" style="font-family:'Helvetica';font-size:16px;fill:#8f0086;">watermarkSize</text></g></g><g><rect x="178.813" y="178.789" width="551.188" height="341.211" style="fill-opacity:0.121569;"/><text x="181.652px" y="231.327px" style="font-family:'Helvetica';font-size:64px;">plot</text></g><g><path d="M100,349.535l78.813,0.606" style="fill:none;stroke:#002fff;stroke-width:1px;stroke-dasharray:1,1;"/><path d="M454.406,178.789l0,-78.789" style="fill:none;stroke:#002fff;stroke-width:1px;stroke-dasharray:1,1;"/><path d="M455.266,520l0,80" style="fill:none;stroke:#002fff;stroke-width:1px;stroke-dasharray:1,1;"/><path d="M730,350.141l70,0" style="fill:none;stroke:#002fff;stroke-width:1px;stroke-dasharray:1,1;"/><g transform="matrix(6.12323e-17,1,-1,6.12323e-17,329.874,-1189.14)"><text x="1277.94px" y="-139.072px" style="font-family:'Helvetica';font-size:16px;fill:#0025ff;">margin.top</text></g><text x="91.969px" y="340.855px" style="font-family:'Helvetica';font-size:16px;fill:#0025ff;">margin.left</text><g transform="matrix(6.12323e-17,1,-1,6.12323e-17,777.054,-749.989)"><text x="1281.96px" y="304.093px" style="font-family:'Helvetica';font-size:16px;fill:#0025ff;">margin.bottom</text></g><text x="744.969px" y="336.461px" style="font-family:'Helvetica';font-size:16px;fill:#0025ff;">margin.right</text></g><defs><radialGradient id="_Radial1" cx="0" cy="0" r="1" gradientUnits="userSpaceOnUse" gradientTransform="matrix(474.137,0,0,381.427,457.253,360.175)"><stop offset="0%" style="stop-color:#000;stop-opacity:1"/><stop offset="45%" style="stop-color:#c7c7c7;stop-opacity:1"/><stop offset="100%" style="stop-color:#fff;stop-opacity:1"/></radialGradient></defs></svg>